<svg width="145" height="145" viewBox="0 0 145 145" fill="none" xmlns="http://www.w3.org/2000/svg">
<path d="M0.463008 54.0055L5.18518 50.7931L7.7079 49.1627L12.7746 46.0601L12.8982 45.9923L20.7145 41.7902L23.4209 46.0031L24.2367 45.5198L31.9022 58.2657L26.4892 62.8571C21.649 66.1292 16.5219 70.1438 12.4814 73.0902L7.65412 66.055L3.07148 58.7555L0.463008 54.0055Z" fill="#A1A9C6" stroke="#192852" stroke-width="0.7"/>
<path d="M20.7148 41.7903L28.3811 37.9925L36.6343 52.2875L37.5391 53.336L31.8572 58.1873L24.23 45.5207L23.4446 45.9741L20.7148 41.7903Z" fill="#A1A9C6" stroke="#192852" stroke-width="0.7"/>
<path d="M28.3689 37.9984C31.1304 42.9522 36.667 52.3722 36.667 52.3722L37.5375 53.3358L40.4868 50.8867L43.6517 49.5962C41.1669 44.4686 38.7848 39.5061 36.4074 34.5094L32.3985 36.0908L28.3689 37.9984Z" fill="#A1A9C6" stroke="#192852" stroke-width="0.7"/>
<path d="M36.4125 34.5094L43.5782 49.6417L50.4844 46.9111L44.1855 31.5025L36.4125 34.5094Z" fill="#A1A9C6" stroke="#192852" stroke-width="0.7"/>
<path d="M44.1126 31.5279L51.886 29.0297L55.947 39.3568L51.1284 40.7774L52.692 46.0535L50.3899 46.9637L44.1126 31.5279Z" fill="#A1A9C6" stroke="#192852" stroke-width="0.7"/>
<path d="M51.8872 29.0297L68.1913 25.1091L71.9115 41.7648L63.032 43.4355L61.2608 37.7138L55.921 39.3283L51.8872 29.0297Z" fill="#A1A9C6" stroke="#192852" stroke-width="0.7"/>
<path d="M68.066 25.1328L71.9086 41.7648L79.4618 40.3362C78.3127 34.296 79.4714 40.214 76.3294 23.7479L68.066 25.1328Z" fill="#A1A9C6" stroke="#192852" stroke-width="0.7"/>
<path d="M76.4741 23.7342L87.3307 22.5656L88.1758 40.3259L85.7582 43.015L82.314 40.067L79.4163 40.2577C76.2594 23.8365 79.4285 40.1676 76.2716 23.7464L76.4741 23.7342Z" fill="#A1A9C6" stroke="#192852" stroke-width="0.7"/>
<path d="M87.3386 22.5945L94.7692 21.9866L100.935 21.9132L105.244 21.98L105.774 28.904L106.048 35.736L106.033 39.9404L105.957 43.053L93.9476 42.3989L93.4406 46.4048L88.0412 46.4851L85.7455 43.0076L88.1935 40.284L87.3386 22.5945Z" fill="#D6D8DC" fill-opacity="0.35" stroke="#192852" stroke-width="0.7"/>
<path d="M88.0152 46.4636L93.441 46.4047L93.9745 42.4313L105.954 42.9917L104.736 59.2574L87.9058 56.4075L88.0152 46.4636Z" fill="#A1A9C6" stroke="#192852" stroke-width="0.7"/>
<path d="M86.5481 65.672L93.0447 66.948L91.4602 72.366C101.897 75.2824 99.58 74.4853 102.148 75.0971L104.727 59.2931L87.9018 56.4078L86.5481 65.672Z" fill="#A1A9C6" stroke="#192852" stroke-width="0.7"/>
<path d="M102.151 75.0971L97.6546 90.8885L81.6867 84.8177L85.3247 75.7008L90.0294 77.0787L91.448 72.2802L102.151 75.0971Z" fill="#A1A9C6" stroke="#192852" stroke-width="0.7"/>
<path d="M97.6643 90.9385L94.5982 99.3807L77.453 91.451L81.7202 84.6936L97.6643 90.9385Z" fill="#D6D8DC" fill-opacity="0.35" stroke="#192852" stroke-width="0.7"/>
<path d="M77.532 91.4059C82.8133 93.8903 89.9259 97.0989 94.6286 99.3228L91.4388 107.149L73.8567 97.1932L77.532 91.4059Z" fill="#A1A9C6" stroke="#192852" stroke-width="0.7"/>
<path d="M71.014 103.337L72.672 101.492L71.6325 100.78L73.9005 97.2716L91.4373 107.149L87.6834 115.123L72.8972 106.598L73.6551 105.009L71.014 103.337Z" fill="#D6D8DC" fill-opacity="0.35" stroke="#192852" stroke-width="0.7"/>
<path d="M60.7722 117.522L69.4449 102.252C69.4449 102.252 69.5248 102.442 73.6759 105.046L72.918 106.635L87.726 115.051L85.7503 118.652L84.8896 120.197L83.7563 122.178L82.9346 123.735L81.9749 125.319L80.4958 127.771L77.3074 126.276L73.8986 124.661L71.5704 123.464L70.4511 122.926L69.2241 122.235L68.0685 121.652L66.4905 120.772L65.5571 120.29L64.4548 119.573L63.4821 119.052L60.7722 117.522Z" fill="#D6D8DC" fill-opacity="0.35" stroke="#192852" stroke-width="0.7"/>
<path d="M60.7719 117.522C60.7719 117.522 60.7341 117.36 69.4363 102.32L66.332 100.489L63.4466 98.6567L53.7546 112.986L60.7719 117.522Z" fill="#A1A9C6" stroke="#192852" stroke-width="0.7"/>
<path d="M63.4212 98.7133L61.3572 97.4964L62.1726 96.1878L58.597 93.0159C46.8739 107.96 50.7288 102.718 46.791 108.001L53.7225 112.962C63.3531 98.7875 53.7907 112.888 63.4212 98.7133Z" fill="#A1A9C6" stroke="#192852" stroke-width="0.7"/>
<path d="M46.7928 108C58.5429 92.918 46.8227 108.12 58.5728 93.0372L56.777 91.3792L55.5083 92.651L51.8898 89.683L40.4038 103.102L46.7928 108Z" fill="#A1A9C6" stroke="#192852" stroke-width="0.7"/>
<path d="M51.9075 89.6524L46.4311 85.0646C46.4311 85.0646 37.6477 93.6296 33.7298 97.5292L40.3995 103.076L51.9075 89.6524Z" fill="#A1A9C6" stroke="#192852" stroke-width="0.7"/>
<path d="M33.729 97.5293L48.1218 83.4597L42.4158 78.1439L28.2432 91.8947L33.729 97.5293Z" fill="#A1A9C6" stroke="#192852" stroke-width="0.7"/>
<path d="M22.6632 85.8003L28.3843 92.0296L41.0823 79.4328L40.1915 78.6127L41.6806 77.0199L37.0051 72.9122L22.6632 85.8003Z" fill="#30407B" stroke="#192852" stroke-width="0.7"/>
<path d="M22.6687 85.8003L36.9835 72.9204L33.6271 69.9635L32.8045 70.6032L30.9389 68.5632L17.1947 79.2213L22.6687 85.8003Z" fill="#30407B" stroke="#192852" stroke-width="0.7"/>
<path opacity="0.99" d="M12.414 72.8964L17.2526 79.2879C21.8828 75.691 17.25 79.2862 31.1407 68.4957L27.7696 64.3734L27.5946 64.5495L26.5018 62.8504C21.6135 66.0235 17.3794 69.4415 12.414 72.8964Z" fill="#A1A9C6" stroke="#192852" stroke-width="0.7"/>
<path d="M30.7315 62.9039L37.2078 68.8501L36.6949 69.2733L37.8905 70.3747L38.1402 70.1544L48.5663 79.7987L46.5105 81.9446L42.4186 78.0848L41.0794 79.4099L40.15 78.5814L41.6337 77.0654L33.6539 70.0177L32.8504 70.651L27.6197 64.6456L26.5352 62.9357L30.7315 62.9039Z" fill="#A1A9C6" stroke="#192852" stroke-width="0.7"/>
<path d="M52.947 75.0239L52.0497 74.2114L56.3164 69.5216L60.9156 73.8744L56.5934 78.3596L55.4954 77.4279L47.654 86.1813L46.3981 85.1884L48.1228 83.4596L46.4846 81.892L48.5869 79.7458L52.947 75.0239Z" fill="#A1A9C6" stroke="#192852" stroke-width="0.7"/>
<path d="M69.5752 98.6761L71.1856 103.448L61.3113 97.4561L62.1338 96.2432L56.8045 91.3522L55.5309 92.6227L47.5522 86.0945L51.2582 82.1744L54.3233 85.0385L53.0957 86.3923L55.5082 88.6156L56.7488 87.2805L56.9311 87.4601L56.6282 87.7695L57.8653 88.9105L58.1563 88.602L61.643 91.8203L61.4499 92.0661L62.6455 93.1581L63.0319 92.6495L69.5752 98.6761Z" fill="#A1A9C6" stroke="#192852" stroke-width="0.7"/>
<path d="M81.551 76.5381L77.7177 85.6019L75.4969 88.7718L69.7 83.4648L69.5097 83.6794L68.4944 82.6191L65.9901 85.767L70.1604 88.5681L74.2724 92.296L69.5991 98.7082L71.0932 103.291L72.7362 101.519L71.6451 100.816L81.7698 84.7021L82.7921 82.1045L85.3699 75.7792L81.551 76.5381Z" fill="#A1A9C6" stroke="#192852" stroke-width="0.7"/>
<path d="M77.49 73.2718L81.566 76.504L85.3732 75.7791L86.1068 73.7847L85.0825 73.643L79.9398 70.0854L77.49 73.2718Z" fill="#A1A9C6" stroke="#192852" stroke-width="0.7"/>
<path d="M83.3445 45.4261L85.1023 47.0336L84.5905 55.4748L83.7103 59.9906L83.2419 63.3819L84.165 64.2369L79.911 70.1338L85.0335 73.5646L86.6007 65.6068L87.896 56.4001L88.008 46.474L85.7186 43.0082L83.3445 45.4261Z" fill="#A1A9C6" stroke="#192852" stroke-width="0.7"/>
<path d="M54.2109 45.3871L58.5092 50.6552L64.2159 45.8697L65.1369 46.6197L73.1068 45.0573L81.3634 43.751L83.347 45.4261L85.7211 43.0082L82.3331 40.0422L79.3804 40.2982L62.9084 43.4477L56.5852 45.3121L54.2109 45.3871Z" fill="#A1A9C6" stroke="#192852" stroke-width="0.7"/>
<path d="M51.9659 49.3006L55.8865 52.8226L58.5339 50.6753L54.2073 45.3429L51.9659 49.3006Z" fill="#A1A9C6" stroke="#192852" stroke-width="0.7"/>
<path d="M26.4069 62.9025L30.5131 62.9404L36.5452 57.6859L40.4206 61.2763L42.6701 64.1788L44.2617 65.8941L47.4409 63.2207L39.8444 56.1503L43.0697 53.7732L51.9738 49.3195L54.2049 45.3872L43.5429 49.6439L40.3525 50.9433L26.4069 62.9025Z" fill="#A1A9C6" stroke="#192852" stroke-width="0.7"/>
<path d="M49.5738 68.379L54.5333 63.0022L51.6116 59.7033L45.8109 64.5822L49.5738 68.379Z" fill="#A1A9C6" stroke="#192852" stroke-width="0.7"/>
<path d="M51.9366 65.7587L58.2928 71.3684L61.4355 68.2104L55.1373 62.3342L51.9366 65.7587Z" fill="#A1A9C6" stroke="#192852" stroke-width="0.7"/>
<path d="M52.0664 65.6203L56.3134 69.5712L52.0338 74.1937L48.3595 77.9751C46.6806 76.3357 47.2553 76.9177 44.3458 74.0158L52.0664 65.6203Z" fill="#30407B" stroke="#192852" stroke-width="0.7"/>
<path d="M57.6194 85.9373C56.174 84.5133 54.7061 83.1276 53.2296 81.735L56.5031 78.3797L60.7963 73.8231L65.2218 77.8827L57.6194 85.9373Z" fill="#A1A9C6" stroke="#192852" stroke-width="0.7"/>
<path d="M61.7696 68.6334L67.3271 73.7333L64.3611 77.1213L58.7417 71.8238L61.7696 68.6334Z" fill="#A1A9C6" stroke="#192852" stroke-width="0.7"/>
<path d="M57.6433 85.9755L62.4625 90.2609L69.2944 81.5984L65.2008 77.8713L57.6433 85.9755Z" fill="#A1A9C6" stroke="#192852" stroke-width="0.7"/>
<path d="M64.3623 77.1214L67.8863 80.323L69.487 78.588L67.6447 76.8411L69.0922 75.3304L67.3283 73.7334L64.3623 77.1214Z" fill="#A1A9C6" stroke="#192852" stroke-width="0.7"/>
<path d="M70.64 49.7236L67.0584 46.241L65.1701 46.5982L64.7923 47.1936L68.8821 51.5764L70.64 49.7236Z" fill="#A1A9C6" stroke="#192852" stroke-width="0.7"/>
<g filter="url(#filter0_d_1932_669)">
<path d="M31.3971 70.9199L40.4654 79.7783L49.9403 69.0376L42.5948 61.2284L31.3971 70.9199Z" fill="#53638F"/>
<path d="M31.3971 70.9199L40.4654 79.7783L49.9403 69.0376L42.5948 61.2284L31.3971 70.9199Z" stroke="#192852" stroke-width="0.7"/>
</g>
<path d="M71.5658 48.6865L73.1495 50.1573L71.8433 51.5753C73.8626 53.5496 75.7722 55.3551 77.4917 56.9122L76.0439 58.5414L68.8808 51.5762L71.5658 48.6865Z" fill="#A1A9C6" stroke="#192852" stroke-width="0.7"/>
<path d="M82.3409 64.2835L83.3236 63.3465L83.6911 59.9925L78.8807 55.4361C78.0066 56.3783 77.1384 57.354 76.0463 58.5416L82.3409 64.2835Z" fill="#A1A9C6" stroke="#192852" stroke-width="0.7"/>
<path d="M54.2077 45.387L56.6037 45.3651C62.8393 43.5172 56.7942 45.2833 63.0298 43.4353L61.3057 37.7283L51.1274 40.7772L52.5794 46.013L54.2077 45.387Z" fill="#A1A9C6" stroke="#192852" stroke-width="0.7"/>
<path d="M85.3629 75.7745L90.0435 77.1644L93.1103 66.9098L86.6286 65.6265L85.0328 73.5644L86.09 73.7966L85.3629 75.7745Z" fill="#D6D8DC" fill-opacity="0.35" stroke="#192852" stroke-width="0.7"/>
<path d="M54.4394 53.9469C61.9007 61.071 70.0878 68.4525 76.6356 74.4345L79.9457 70.01L58.5082 50.6553L54.4394 53.9469Z" fill="#D6D8DC" fill-opacity="0.35" stroke="#192852" stroke-width="0.7"/>
<path d="M69.4754 79.803L70.9102 78.3239L74.0674 81.2185L70.8648 84.5733L69.7011 83.4648L71.3517 81.5746L69.4754 79.803Z" fill="#A1A9C6" stroke="#192852" stroke-width="0.7"/>
<defs>
<filter id="filter0_d_1932_669" x="26.8789" y="60.744" width="27.5352" height="27.542" filterUnits="userSpaceOnUse" color-interpolation-filters="sRGB">
<feFlood flood-opacity="0" result="BackgroundImageFix"/>
<feColorMatrix in="SourceAlpha" type="matrix" values="0 0 0 0 0 0 0 0 0 0 0 0 0 0 0 0 0 0 127 0" result="hardAlpha"/>
<feOffset dy="4"/>
<feGaussianBlur stdDeviation="2"/>
<feColorMatrix type="matrix" values="0 0 0 0 0 0 0 0 0 0 0 0 0 0 0 0 0 0 0.45 0"/>
<feBlend mode="normal" in2="BackgroundImageFix" result="effect1_dropShadow_1932_669"/>
<feBlend mode="normal" in="SourceGraphic" in2="effect1_dropShadow_1932_669" result="shape"/>
</filter>
</defs>
</svg>
