<svg width="699" height="794" viewBox="0 0 699 794" fill="none" xmlns="http://www.w3.org/2000/svg">
<path d="M3.30456 296.792L29.3707 279.13L43.2951 270.168L71.2595 253.115L71.9416 252.743L115.076 229.656L129.953 252.909L134.456 250.253L176.586 320.6L146.697 345.856C119.98 363.846 91.6725 385.926 69.3674 402.128L42.8263 363.294L17.6366 323.006L3.30456 296.792Z" fill="#A1A9C6" stroke="#19285A"/>
<path d="M115.078 229.656L157.381 208.797L202.735 287.689L207.712 293.479L176.339 320.166L134.419 250.257L130.084 252.749L115.078 229.656Z" fill="#A1A9C6" stroke="#19285A"/>
<path d="M157.319 208.831C172.492 236.17 202.919 288.159 202.919 288.159L207.709 293.48L223.993 280.008L241.455 272.926C227.808 244.632 214.726 217.249 201.671 189.678L179.554 198.356L157.319 208.831Z" fill="#A1A9C6" stroke="#19285A"/>
<path d="M201.67 189.678L241.02 273.175L279.122 258.192L244.553 173.181L201.67 189.678Z" fill="#A1A9C6" stroke="#19285A"/>
<path d="M244.174 173.317L287.055 159.624L309.337 216.599L282.758 224.382L291.324 253.484L278.624 258.479L244.174 173.317Z" fill="#A1A9C6" stroke="#19285A"/>
<path d="M287.055 159.625L376.98 138.177L397.319 230.038L348.349 239.158L338.643 207.596L309.189 216.442L287.055 159.625Z" fill="#A1A9C6" stroke="#19285A"/>
<path d="M376.306 138.306L397.32 230.038L438.976 222.239C432.703 188.928 439.03 221.565 421.876 130.756L376.306 138.306Z" fill="#A1A9C6" stroke="#19285A"/>
<path d="M422.675 130.682L482.54 124.35L487.018 222.271L473.662 237.072L454.704 220.784L438.727 221.806C421.491 131.243 438.795 221.309 421.559 130.747L422.675 130.682Z" fill="#A1A9C6" stroke="#19285A"/>
<path d="M482.568 124.51L523.539 121.235L557.533 120.893L581.285 121.305L584.136 159.483L585.58 197.15L585.454 220.329L585.005 237.488L518.801 233.759L515.965 255.839L486.197 256.226L473.577 237.031L487.1 222.041L482.568 124.51Z" fill="#A1A9C6" stroke="#19285A"/>
<path d="M486.05 256.109L515.963 255.839L518.945 233.939L584.983 237.152L578.103 326.812L485.346 310.929L486.05 256.109Z" fill="#D6D8DC" stroke="#19285A"/>
<path d="M477.79 361.987L513.593 369.088L504.802 398.942C562.31 415.126 549.545 410.708 563.696 414.107L578.078 327.006L485.348 310.927L477.79 361.987Z" fill="#A1A9C6" stroke="#19285A"/>
<path d="M563.694 414.108L538.744 501.12L450.774 467.489L470.923 417.264L496.847 424.909L504.716 398.469L563.694 414.108Z" fill="#A1A9C6" stroke="#19285A"/>
<path d="M538.796 501.396L521.806 547.907L427.366 504.016L450.959 466.806L538.796 501.396Z" fill="#D6D8DC" stroke="#19285A"/>
<path d="M427.797 503.767C456.887 517.517 496.066 535.279 521.97 547.587L504.304 590.703L407.476 535.635L427.797 503.767Z" fill="#A1A9C6" stroke="#19285A"/>
<path d="M391.751 569.474L400.911 559.323L395.188 555.387L407.727 536.067L504.307 590.702L483.53 634.624L402.1 587.476L406.295 578.721L391.751 569.474Z" fill="#A1A9C6" stroke="#19285A"/>
<path d="M335.144 647.578L383.113 563.482C383.113 563.482 383.552 564.529 406.41 578.926L402.215 587.681L483.765 634.23L472.837 654.058L468.076 662.572L461.808 673.476L457.262 682.055L451.955 690.776L443.775 704.281L426.213 696.004L407.437 687.067L394.614 680.443L388.449 677.466L381.691 673.648L375.326 670.417L366.636 665.554L361.495 662.885L355.426 658.921L350.068 656.036L335.144 647.578Z" fill="#A1A9C6" stroke="#19285A"/>
<path d="M335.146 647.577C335.146 647.577 334.939 646.679 383.068 563.854L365.973 553.727L350.084 543.598L296.506 622.499L335.146 647.577Z" fill="#A1A9C6" stroke="#19285A"/>
<path d="M349.945 543.909L338.578 537.179L343.087 529.973L323.408 512.45C258.625 594.719 279.931 565.86 258.168 594.94L296.331 622.365C349.569 544.317 296.707 621.957 349.945 543.909Z" fill="#A1A9C6" stroke="#19285A"/>
<path d="M258.171 594.94C323.103 511.911 258.334 595.598 323.267 512.568L313.384 503.409L306.376 510.408L286.457 494.008L222.998 567.868L258.171 594.94Z" fill="#A1A9C6" stroke="#19285A"/>
<path d="M286.559 493.839L256.415 468.49C256.415 468.49 207.904 515.62 186.265 537.078L222.979 567.728L286.559 493.839Z" fill="#D6D8DC" stroke="#19285A"/>
<path d="M186.264 537.077L265.756 459.659L234.352 430.294L156.078 505.958L186.264 537.077Z" fill="#A1A9C6" stroke="#19285A"/>
<path d="M125.383 472.303L156.859 506.703L226.992 437.387L222.09 432.856L230.315 424.09L204.581 401.397L125.383 472.303Z" fill="#A1A9C6" stroke="#19285A"/>
<path d="M125.383 472.303L204.433 401.442L185.959 385.107L181.417 388.625L171.153 377.36L95.2721 435.977L125.383 472.303Z" fill="#A1A9C6" stroke="#19285A"/>
<path opacity="0.99" d="M69.0116 401.059L95.6213 436.344C121.184 416.562 95.6072 436.335 172.297 376.989L153.754 354.228L152.787 355.197L146.78 345.819C119.798 363.262 96.4208 382.062 69.0116 401.059L69.0116 401.059Z" fill="#A1A9C6" stroke="#19285A"/>
<path d="M170.084 346.157L205.727 379.004L202.895 381.332L209.476 387.416L210.854 386.204L268.235 439.48L256.88 451.289L234.36 429.968L226.964 437.26L221.848 432.682L230.043 424.34L186.123 385.405L181.687 388.888L152.911 355.726L146.949 346.289L170.084 346.157Z" fill="#A1A9C6" stroke="#19285A"/>
<path d="M292.44 413.203L287.502 408.714L311.072 382.903L336.383 406.947L312.508 431.63L306.465 426.482L263.145 474.66L256.232 469.173L265.758 459.659L256.743 451L268.354 439.19L292.44 413.203Z" fill="#A1A9C6" stroke="#19285A"/>
<path d="M383.853 543.767L392.683 570.092L338.307 536.957L342.854 530.278L313.523 503.26L306.489 510.251L262.568 474.18L283.04 452.606L299.908 468.427L293.127 475.878L306.405 488.16L313.257 480.812L314.261 481.804L312.587 483.507L319.396 489.81L321.003 488.112L340.193 505.89L339.126 507.243L345.706 513.276L347.842 510.476L383.853 543.767Z" fill="#A1A9C6" stroke="#19285A"/>
<path d="M450.11 421.843L428.884 471.772L416.609 489.225L384.704 459.909L383.653 461.09L378.067 455.234L364.228 472.563L387.19 488.047L409.822 508.641L383.992 543.944L392.182 569.226L401.259 559.472L395.25 555.585L451.233 466.853L456.895 452.543L471.171 417.698L450.11 421.843Z" fill="#D6D8DC" stroke="#19285A"/>
<path d="M427.74 403.793L450.178 421.654L471.175 417.696L475.239 406.708L469.594 405.917L441.279 386.251L427.74 403.793Z" fill="#A1A9C6" stroke="#19285A"/>
<path d="M460.32 250.34L469.993 259.22L467.086 305.751L462.187 330.637L459.57 349.329L464.651 354.052L441.138 386.518L469.344 405.484L478.065 361.629L485.3 310.886L486.018 256.164L473.433 237.034L460.32 250.34Z" fill="#A1A9C6" stroke="#19285A"/>
<path d="M299.691 249.827L323.334 278.914L354.844 252.59L359.914 256.734L403.868 248.202L449.4 241.085L460.318 250.34L473.431 237.034L454.783 220.648L438.503 222.029L347.66 239.224L312.781 249.438L299.691 249.827Z" fill="#A1A9C6" stroke="#19285A"/>
<path d="M287.284 271.38L308.862 290.837L323.479 279.026L299.681 249.584L287.284 271.38Z" fill="#A1A9C6" stroke="#19285A"/>
<path d="M146.263 346.105L168.9 346.356L202.209 317.449L223.537 337.283L235.909 353.307L244.667 362.78L262.221 348.074L220.413 309.017L238.219 295.945L287.352 271.483L299.692 249.827L240.869 273.185L223.268 280.316L146.263 346.105Z" fill="#A1A9C6" stroke="#19285A"/>
<path d="M219.517 383.667L245.033 407.556L273.914 376.534L253.316 355.409L219.517 383.667Z" fill="#A1A9C6" stroke="#19285A"/>
<path d="M273.913 376.535L301.31 346.943L285.236 328.727L253.207 355.565L273.913 376.535Z" fill="#A1A9C6" stroke="#19285A"/>
<path d="M286.962 362.111L321.947 393.103L339.305 375.725L304.643 343.265L286.962 362.111Z" fill="#A1A9C6" stroke="#19285A"/>
<path d="M287.68 361.351L311.053 383.176L287.413 408.616L267.118 429.425C257.879 420.37 261.041 423.584 245.031 407.556L287.68 361.351Z" fill="#A1A9C6" stroke="#19285A"/>
<path d="M318.074 473.414C310.12 465.548 302.042 457.894 293.916 450.202L311.997 431.738L335.712 406.661L360.068 429.086L318.074 473.414Z" fill="#A1A9C6" stroke="#19285A"/>
<path d="M341.141 378.062L371.728 406.235L355.342 424.883L324.416 395.62L341.141 378.062Z" fill="#A1A9C6" stroke="#19285A"/>
<path d="M318.226 473.626L344.75 497.301L382.503 449.614L359.973 429.025L318.226 473.626Z" fill="#A1A9C6" stroke="#19285A"/>
<path d="M355.343 424.883L374.738 442.57L383.58 433.021L373.442 423.371L381.437 415.058L371.729 406.235L355.343 424.883Z" fill="#D6D8DC" stroke="#19285A"/>
<path d="M390.239 273.903L370.53 254.666L360.116 256.616L358.027 259.895L380.529 284.099L390.239 273.903Z" fill="#A1A9C6" stroke="#19285A"/>
<path d="M395.359 268.195L404.075 276.32L396.86 284.124C407.972 295.029 418.481 305.002 427.944 313.604L419.946 322.571L380.527 284.099L395.359 268.195Z" fill="#A1A9C6" stroke="#19285A"/>
<path d="M454.592 354.291L460.02 349.135L462.08 330.648L435.607 305.48C430.778 310.665 425.982 316.035 419.949 322.572L454.592 354.291Z" fill="#D6D8DC" stroke="#19285A"/>
<path d="M299.691 249.828L312.9 249.732C347.296 239.608 313.952 249.283 348.347 239.159L338.901 207.678L282.756 224.383L290.707 253.263L299.691 249.828Z" fill="#A1A9C6" stroke="#19285A"/>
<path d="M471.143 417.671L496.933 425.382L513.945 368.879L478.224 361.738L469.345 405.484L475.172 406.775L471.143 417.671Z" fill="#A1A9C6" stroke="#19285A"/>
<path d="M300.868 297.02C341.929 336.371 386.99 377.149 423.027 410.194L441.321 385.836L323.333 278.914L300.868 297.02Z" fill="#A1A9C6" stroke="#19285A"/>
<path d="M383.501 439.718L391.427 431.578L408.803 447.569L391.112 466.031L384.709 459.907L393.828 449.504L383.501 439.718Z" fill="#A1A9C6" stroke="#19285A"/>
</svg>
