<svg width="592" height="579" viewBox="0 0 592 579" fill="none" xmlns="http://www.w3.org/2000/svg">
<path d="M1.94039 5.44799L33.3408 3.1277L49.8795 2.29742L82.6224 1.45068L83.3992 1.46783L132.301 2.95068L133.609 30.5252L138.837 30.4664L140.301 112.451L101.801 119.451C69.6722 121.731 34.1267 126.765 6.71426 129.695L3.05915 82.7998L1.30078 35.317L1.94039 5.44799Z" fill="#A1A9C6" stroke="#19285A"/>
<path d="M132.301 2.95068L179.371 5.95068V96.9507L180.801 104.451L140.301 111.951L138.801 30.4507H133.801L132.301 2.95068Z" fill="#A1A9C6" stroke="#19285A"/>
<path d="M179.304 5.95068C178.833 37.2144 179.301 97.4507 179.301 97.4507L180.801 104.451L201.633 100.888L220.301 103.451C222.571 72.12 224.878 41.8603 227.3 11.4507L203.801 7.95068L179.304 5.95068Z" fill="#A1A9C6" stroke="#19285A"/>
<path d="M227.301 11.4507L219.801 103.451L260.301 109.451L272.701 18.521L227.301 11.4507Z" fill="#A1A9C6" stroke="#19285A"/>
<path d="M272.301 18.4507L316.301 27.9507L307.223 88.4507L280.301 81.9507L273.223 111.451L259.723 109.451L272.301 18.4507Z" fill="#A1A9C6" stroke="#19285A"/>
<path d="M316.301 27.9507L404.95 54.1744L376.801 143.951L329.801 127.451L337.116 95.251L307.172 88.2399L316.301 27.9507Z" fill="#A1A9C6" stroke="#19285A"/>
<path d="M404.301 53.9507L376.801 143.951L416.801 157.951C427.964 125.945 417.184 157.394 447.571 70.1168L404.301 53.9507Z" fill="#A1A9C6" stroke="#19285A"/>
<path d="M448.301 70.4507L503.356 94.7973L458.435 181.922L439.479 188.097L431.161 164.528L416.801 157.451C446.994 70.347 417.108 157.054 447.301 69.9507L448.301 70.4507Z" fill="#A1A9C6" stroke="#19285A"/>
<path d="M503.301 94.9507L540.453 112.53L570.095 129.177L590.481 141.373L573.925 175.892L556.404 209.267L544.742 229.299L535.801 243.951L480.264 207.722L466.801 225.451L440.801 210.951L439.426 188.02L458.621 181.764L503.301 94.9507Z" fill="#A1A9C6" stroke="#19285A"/>
<path d="M440.733 210.776L466.801 225.451L480.301 207.951L535.952 243.648L485.301 317.951L412.801 257.951L440.733 210.776Z" fill="#D6D8DC" stroke="#19285A"/>
<path d="M380.801 298.451L408.301 322.451L385.801 343.951C427.591 386.643 418.727 376.452 429.301 386.451L485.18 318.106L412.801 257.951L380.801 298.451Z" fill="#A1A9C6" stroke="#19285A"/>
<path d="M429.301 386.451L364.304 449.451L304.801 376.451L347.301 342.951L365.965 362.498L385.965 343.498L429.301 386.451Z" fill="#A1A9C6" stroke="#19285A"/>
<path d="M364.21 449.716L326.301 481.571L266.301 396.451L305.301 375.951L364.21 449.716Z" fill="#D6D8DC" stroke="#19285A"/>
<path d="M266.801 396.45C285.168 422.87 310.282 457.795 326.604 481.376L289.801 509.95L233.301 413.95L266.801 396.45Z" fill="#A1A9C6" stroke="#19285A"/>
<path d="M202.801 435.451L215.801 431.215L212.801 424.951L233.301 414.451L289.801 509.951L249.897 537.674L202.801 456.215L210.801 450.715L202.801 435.451Z" fill="#A1A9C6" stroke="#19285A"/>
<path d="M114.801 474.951L198.301 425.951C198.301 425.951 198.159 427.077 210.801 450.951L202.801 456.451L250.301 537.451L230.944 549.194L222.574 554.202L211.705 560.531L203.488 565.703L194.541 570.619L180.718 578.251L169.618 562.322L157.794 545.216L149.978 533.082L146.118 527.429L142.162 520.75L138.254 514.777L133.144 506.23L130.017 501.354L126.731 494.893L123.524 489.721L114.801 474.951Z" fill="#A1A9C6" stroke="#19285A"/>
<path d="M114.801 474.95C114.801 474.95 115.069 474.069 198.074 426.25L188.301 408.95L179.574 392.25L93.8008 433.95L114.801 474.95Z" fill="#A1A9C6" stroke="#19285A"/>
<path d="M179.297 392.451L172.797 380.951L180.297 376.951L171.969 351.951C74.8037 390.987 107.658 376.586 74.2969 390.951L93.7136 433.747C178.767 392.617 94.2433 433.581 179.297 392.451Z" fill="#A1A9C6" stroke="#19285A"/>
<path d="M74.3008 390.951C171.975 351.331 74.1152 391.602 171.79 351.982L167.786 339.116L158.223 341.691L149.128 317.546L57.3008 349.951L74.3008 390.951Z" fill="#A1A9C6" stroke="#19285A"/>
<path d="M149.301 317.451L135.801 280.451C135.801 280.451 70.2553 297.132 40.8008 304.951L57.3534 349.821L149.301 317.451Z" fill="#D6D8DC" stroke="#19285A"/>
<path d="M40.8008 304.951L148.301 277.451L135.711 236.342L30.1406 262.927L40.8008 304.951Z" fill="#A1A9C6" stroke="#19285A"/>
<path d="M20.3008 218.451L30.4443 263.962L125.793 238.822L123.801 232.451L135.301 228.951L124.301 196.451L20.3008 218.451Z" fill="#A1A9C6" stroke="#19285A"/>
<path d="M20.3008 218.451L124.15 196.416L116.275 173.046L110.585 173.833L107.301 158.951L12.3008 171.951L20.3008 218.451Z" fill="#A1A9C6" stroke="#19285A"/>
<path opacity="0.99" d="M6.94141 128.591L12.4244 172.444C44.4457 168.035 12.4168 172.429 108.481 159.201L103.749 130.226L102.428 130.585L101.894 119.46C69.8085 121.135 40.1714 125.783 6.94141 128.591V128.591Z" fill="#A1A9C6" stroke="#19285A"/>
<path d="M121.923 131.366L136.453 177.608L132.838 178.214L135.511 186.768L137.309 186.405L160.504 261.191L144.773 265.769L135.876 236.061L125.83 238.697L123.676 232.179L134.939 229.031L116.267 173.386L110.685 174.195L102.266 131.104L101.801 119.951L121.923 131.366Z" fill="#A1A9C6" stroke="#19285A"/>
<path d="M194.587 250.473L192.542 244.121L225.841 233.491L235.801 266.951L202.801 276.451L200.127 268.976L138.56 289.153L135.301 280.951L148.301 277.451L144.801 265.451L160.754 260.999L194.587 250.473Z" fill="#A1A9C6" stroke="#19285A"/>
<path d="M208.766 409.227L203.301 436.451L172.674 380.623L179.945 377.099L167.982 339.058L158.4 341.613L138.301 288.451L166.801 279.951L173.54 302.074L163.947 305.154L169.337 322.418L178.94 319.464L179.316 320.824L177.016 321.466L179.778 330.324L182.017 329.653L189.793 354.629L188.194 355.271L190.892 363.78L194.139 362.417L208.766 409.227Z" fill="#A1A9C6" stroke="#19285A"/>
<path d="M326.976 336.547L283.69 369.255L264.349 378.268L251.301 336.951L249.801 337.451L247.876 329.59L227.243 337.716L239.432 362.585L248.788 391.718L208.801 409.451L203.301 435.451L216.031 431.518L212.759 425.153L305.517 376.129L317.558 366.544L347.301 343.451L326.976 336.547Z" fill="#D6D8DC" stroke="#19285A"/>
<path d="M316.578 309.75L327.129 336.417L347.305 343.451L356.305 335.951L351.805 332.451L337.058 301.289L316.578 309.75Z" fill="#A1A9C6" stroke="#19285A"/>
<path d="M421.301 192.951L425.262 205.471L399.55 244.362L382.9 263.496L371.316 278.396L373.366 285.022L336.801 301.451L351.801 331.951L381.219 298.277L412.781 257.891L440.677 210.809L439.301 187.951L421.301 192.951Z" fill="#A1A9C6" stroke="#19285A"/>
<path d="M282.301 112.451L288.301 149.451L328.738 142.334L331.068 148.453L373.427 162.963L416.448 179.485L421.301 192.951L439.301 187.951L431.301 164.451L416.498 157.534L329.172 127.166L293.843 118.637L282.301 112.451Z" fill="#A1A9C6" stroke="#19285A"/>
<path d="M260.801 124.951L269.811 152.573L288.37 149.619L282.412 112.233L260.801 124.951Z" fill="#A1A9C6" stroke="#19285A"/>
<path d="M101.301 119.451L120.801 130.951L164.085 122.491L172.69 150.315L175.429 170.374L178.301 182.951L200.849 178.951L184.07 124.253L206.021 121.795L260.809 125.075L282.301 112.451L219.662 103.384L200.849 100.794L101.301 119.451Z" fill="#A1A9C6" stroke="#19285A"/>
<path d="M146.086 188.523L156.301 221.951L196.801 209.451L189.472 180.871L146.086 188.523Z" fill="#A1A9C6" stroke="#19285A"/>
<path d="M196.801 209.451L235.301 197.451L230.445 173.647L189.301 180.951L196.801 209.451Z" fill="#A1A9C6" stroke="#19285A"/>
<path d="M215.301 203.451L230.185 247.755L253.894 241.34L240.022 195.924L215.301 203.451Z" fill="#A1A9C6" stroke="#19285A"/>
<path d="M216.304 203.149L225.69 233.719L192.516 243.992L164.55 251.918C161.053 239.463 162.193 243.826 156.301 221.951L216.304 203.149Z" fill="#A1A9C6" stroke="#19285A"/>
<path d="M186.801 315.451C183.825 304.667 180.637 294.006 177.426 283.286L202.304 276.291L235.361 266.37L245.301 297.951L186.801 315.451Z" fill="#A1A9C6" stroke="#19285A"/>
<path d="M254.325 244.282L266.801 283.951L243.301 291.951L231.074 251.168L254.325 244.282Z" fill="#A1A9C6" stroke="#19285A"/>
<path d="M186.828 315.711L198.024 349.455L254.521 326.929L245.25 297.851L186.828 315.711Z" fill="#A1A9C6" stroke="#19285A"/>
<path d="M243.301 291.951L251.301 316.951L263.726 313.079L259.745 299.66L270.82 296.438L266.801 283.951L243.301 291.951Z" fill="#D6D8DC" stroke="#19285A"/>
<path d="M348.801 178.451L341.301 151.951L331.301 148.451L327.855 150.252L335.301 182.451L348.801 178.451Z" fill="#A1A9C6" stroke="#19285A"/>
<path d="M356.086 176.055L359.592 187.443L349.448 190.613C353.646 205.605 357.787 219.489 361.704 231.663L350.301 235.451L335.301 182.451L356.086 176.055Z" fill="#A1A9C6" stroke="#19285A"/>
<path d="M364.526 280.216L371.801 278.451L382.801 263.451L372.394 228.436C365.623 230.526 358.788 232.791 350.301 235.451L364.526 280.216Z" fill="#D6D8DC" stroke="#19285A"/>
<path d="M282.297 112.451L293.797 118.951C328.662 127.316 294.932 119.085 329.797 127.451L337.297 95.4507L280.297 81.9507L272.797 110.951L282.297 112.451Z" fill="#A1A9C6" stroke="#19285A"/>
<path d="M347.285 343.413L365.801 362.951L408.71 322.445L381.301 298.451L351.801 331.951L356.209 335.974L347.285 343.413Z" fill="#A1A9C6" stroke="#19285A"/>
<path d="M259.801 153.951C275.787 208.531 294.528 266.341 309.301 312.951L337.301 300.951L288.301 149.451L259.801 153.951Z" fill="#A1A9C6" stroke="#19285A"/>
<path d="M260.316 318.846L271.244 315.739L278.339 338.262L253.801 345.451L251.301 336.951L264.391 332.476L260.316 318.846Z" fill="#A1A9C6" stroke="#19285A"/>
</svg>
