<svg width="800" height="794" viewBox="0 0 800 794" fill="none" xmlns="http://www.w3.org/2000/svg">
<path d="M3.30472 296.792L29.3709 279.13L43.2953 270.168L71.2597 253.115L71.9417 252.742L115.076 229.656L129.953 252.909L134.456 250.253L176.586 320.6L146.697 345.856C119.98 363.846 91.6727 385.926 69.3676 402.128L42.8264 363.294L17.6368 323.006L3.30472 296.792Z" fill="#A1A9C6" stroke="#19285A"/>
<path d="M115.076 229.656L157.379 208.797L202.733 287.689L207.711 293.479L176.337 320.166L134.418 250.257L130.083 252.749L115.076 229.656Z" fill="#A1A9C6" stroke="#19285A"/>
<path d="M157.319 208.831C172.493 236.17 202.92 288.159 202.92 288.159L207.709 293.48L223.993 280.008L241.455 272.926C227.808 244.632 214.727 217.249 201.671 189.678L179.554 198.356L157.319 208.831Z" fill="#A1A9C6" stroke="#19285A"/>
<path d="M201.671 189.678L241.021 273.175L279.123 258.192L244.554 173.18L201.671 189.678Z" fill="#A1A9C6" stroke="#19285A"/>
<path d="M244.175 173.317L287.056 159.624L309.339 216.599L282.759 224.381L291.325 253.484L278.625 258.479L244.175 173.317Z" fill="#A1A9C6" stroke="#19285A"/>
<path d="M287.054 159.625L335.5 148.07L347.5 192.5L359.5 237.081L348.349 239.158L338.643 207.596L309.188 216.442L287.054 159.625Z" fill="#A1A9C6"/>
<path fill-rule="evenodd" clip-rule="evenodd" d="M286.38 159.272L377.357 137.573L397.919 230.435L348.002 239.731L338.311 208.218L308.89 217.054L286.38 159.272ZM287.729 159.978L309.486 215.831L338.975 206.975L348.695 238.585L358.876 236.689L335.144 148.669L287.729 159.978ZM336.117 148.437L359.863 236.505L396.719 229.641L376.601 138.781L336.117 148.437Z" fill="#19285A"/>
<path d="M376.305 138.306L397.319 230.038L438.975 222.239C432.702 188.928 439.029 221.565 421.875 130.756L376.305 138.306Z" fill="#A1A9C6" stroke="#19285A"/>
<path d="M422.674 130.682L482.538 124.35L487.016 222.271L473.66 237.072L454.702 220.784L438.725 221.806C421.489 131.243 438.794 221.309 421.558 130.747L422.674 130.682Z" fill="#A1A9C6" stroke="#19285A"/>
<path d="M482.567 124.51L523.537 121.235L557.532 120.893L581.284 121.305L584.135 159.483L585.579 197.15L585.453 220.329L585.004 237.488L518.8 233.759L515.964 255.839L486.196 256.226L473.575 237.031L487.099 222.041L482.567 124.51Z" fill="#A1A9C6" stroke="#19285A"/>
<path d="M486.049 256.109L515.962 255.839L518.944 233.939L584.982 237.152L578.103 326.812L485.345 310.929L486.049 256.109Z" fill="#A1A9C6" stroke="#19285A"/>
<path d="M477.79 361.987L513.593 369.088L504.802 398.942C562.31 415.126 549.545 410.708 563.696 414.107L571.5 366.5L479.5 349L477.79 361.987Z" fill="#A1A9C6"/>
<path d="M477.79 361.987L513.593 369.088L504.802 398.942C562.31 415.126 549.545 410.708 563.696 414.107L571.5 366.5L479.5 349L477.79 361.987Z" fill="#A1A9C6"/>
<path d="M477.79 361.987L513.593 369.088L504.802 398.942C562.31 415.126 549.545 410.708 563.696 414.107L571.5 366.5L479.5 349L477.79 361.987Z" stroke="#19285A"/>
<path d="M477.79 361.987L513.593 369.088L504.802 398.942C562.31 415.126 549.545 410.708 563.696 414.107L571.5 366.5L479.5 349L477.79 361.987Z" stroke="#19285A"/>
<path d="M563.693 414.108L551 457L466.5 429.5L470.923 417.264L496.846 424.909L504.716 398.469L563.693 414.108Z" fill="#A1A9C6" stroke="#19285A"/>
<path d="M551.5 457L538.796 501.396L450.96 466.806L466.594 429.596L551.5 457Z" fill="#A1A9C6" stroke="#19285A"/>
<path d="M427.798 503.767C456.889 517.517 496.068 535.279 521.971 547.587L504.306 590.702L407.477 535.635L427.798 503.767Z" fill="#A1A9C6" stroke="#19285A"/>
<path d="M391.753 569.474L400.912 559.323L395.189 555.387L407.728 536.067L504.308 590.701L483.531 634.624L402.102 587.476L406.296 578.721L391.753 569.474Z" fill="#A1A9C6" stroke="#19285A"/>
<path d="M335.146 647.578L383.115 563.482C383.115 563.482 383.554 564.529 406.412 578.926L402.217 587.681L483.768 634.23L472.839 654.058L468.078 662.571L461.81 673.476L457.264 682.055L451.957 690.776L443.778 704.281L426.216 696.004L407.439 687.067L394.616 680.443L388.451 677.466L381.693 673.648L375.328 670.417L366.638 665.554L361.497 662.885L355.428 658.921L350.07 656.036L335.146 647.578Z" fill="#A1A9C6" stroke="#19285A"/>
<path d="M335.148 647.577C335.148 647.577 334.941 646.679 383.07 563.854L365.975 553.727L350.086 543.598L296.508 622.499L335.148 647.577Z" fill="#A1A9C6" stroke="#19285A"/>
<path d="M349.946 543.909L338.579 537.179L343.088 529.973L323.408 512.45C258.626 594.719 279.932 565.86 258.169 594.94L296.332 622.365C349.57 544.317 296.708 621.957 349.946 543.909Z" fill="#A1A9C6" stroke="#19285A"/>
<path d="M258.169 594.94C323.101 511.911 258.333 595.598 323.265 512.568L313.382 503.409L306.374 510.408L286.456 494.008L222.996 567.868L258.169 594.94Z" fill="#A1A9C6" stroke="#19285A"/>
<path d="M286.559 493.839L256.415 468.49C256.415 468.49 207.904 515.62 186.265 537.078L222.979 567.728L286.559 493.839Z" fill="#A1A9C6" stroke="#19285A"/>
<path d="M186.266 537.077L265.757 459.659L234.354 430.294L156.08 505.958L186.266 537.077Z" fill="#A1A9C6" stroke="#19285A"/>
<path d="M125.383 472.303L156.86 506.703L226.993 437.387L222.09 432.856L230.316 424.09L204.581 401.397L125.383 472.303Z" fill="#A1A9C6" stroke="#19285A"/>
<path d="M125.382 472.303L204.432 401.442L185.958 385.107L181.417 388.625L171.152 377.36L95.2714 435.977L125.382 472.303Z" fill="#A1A9C6" stroke="#19285A"/>
<path opacity="0.99" d="M69.0136 401.059L95.6233 436.344C121.186 416.562 95.6092 436.335 172.299 376.989L153.756 354.228L152.789 355.197L146.782 345.819C119.8 363.262 96.4228 382.062 69.0136 401.059L69.0136 401.059Z" fill="#A1A9C6" stroke="#19285A"/>
<path d="M170.083 346.157L205.726 379.004L202.894 381.332L209.474 387.416L210.853 386.204L268.234 439.48L256.878 451.289L234.359 429.968L226.962 437.26L221.847 432.682L230.042 424.34L186.121 385.405L181.685 388.888L152.909 355.726L146.948 346.289L170.083 346.157Z" fill="#D6D8DC" stroke="#19285A"/>
<path d="M292.438 413.203L287.5 408.714L311.07 382.903L336.381 406.947L312.507 431.63L306.463 426.482L263.144 474.66L256.23 469.173L265.756 459.659L256.741 451L268.353 439.19L292.438 413.203Z" fill="#D6D8DC" stroke="#19285A"/>
<path d="M383.854 543.767L392.684 570.092L338.308 536.957L342.855 530.278L313.524 503.26L306.49 510.251L262.569 474.18L283.041 452.606L299.909 468.427L293.128 475.878L306.405 488.16L313.258 480.812L314.262 481.804L312.588 483.507L319.397 489.81L321.004 488.112L340.194 505.89L339.127 507.243L345.707 513.276L347.842 510.476L383.854 543.767Z" fill="#D6D8DC" stroke="#19285A"/>
<path d="M450.111 421.843L428.886 471.772L416.61 489.225L384.706 459.909L383.655 461.09L378.068 455.234L364.23 472.562L387.192 488.047L409.823 508.641L383.994 543.944L392.184 569.226L401.26 559.472L395.252 555.585L451.235 466.853L456.897 452.543L471.173 417.698L450.111 421.843Z" fill="#D6D8DC" stroke="#19285A"/>
<path d="M427.741 403.793L450.179 421.654L471.176 417.696L475.24 406.708L469.595 405.917L441.279 386.251L427.741 403.793Z" fill="#D6D8DC" stroke="#19285A"/>
<path d="M460.32 250.34L469.994 259.22L467.087 305.751L462.188 330.637L459.571 349.329L464.651 354.052L441.139 386.518L469.344 405.484L478.065 361.629L485.301 310.886L486.019 256.164L473.433 237.034L460.32 250.34Z" fill="#D6D8DC" stroke="#19285A"/>
<path d="M299.693 249.827L323.335 278.914L354.845 252.59L359.915 256.734L403.869 248.202L449.401 241.085L460.32 250.34L473.433 237.034L454.785 220.648L438.504 222.029L347.662 239.224L312.783 249.438L299.693 249.827Z" fill="#D6D8DC" stroke="#19285A"/>
<path d="M287.283 271.38L308.861 290.837L323.478 279.026L299.68 249.584L287.283 271.38Z" fill="#D6D8DC" stroke="#19285A"/>
<path d="M146.265 346.105L168.902 346.356L202.211 317.449L223.539 337.282L235.911 353.307L244.669 362.78L262.223 348.074L220.415 309.017L238.221 295.945L287.354 271.483L299.694 249.826L240.871 273.185L223.27 280.316L146.265 346.105Z" fill="#D6D8DC" stroke="#19285A"/>
<path d="M219.517 383.667L245.033 407.555L273.914 376.534L253.316 355.409L219.517 383.667Z" fill="#A1A9C6" stroke="#19285A"/>
<path d="M273.912 376.535L301.309 346.943L285.235 328.727L253.206 355.565L273.912 376.535Z" fill="#A1A9C6" stroke="#19285A"/>
<path d="M286.963 362.111L321.947 393.103L339.305 375.725L304.643 343.265L286.963 362.111Z" fill="#A1A9C6" stroke="#19285A"/>
<path d="M287.681 361.351L311.054 383.176L287.413 408.616L267.119 429.425C257.879 420.37 261.041 423.584 245.031 407.556L287.681 361.351Z" fill="#A1A9C6" stroke="#19285A"/>
<path d="M318.075 473.414C310.121 465.548 302.043 457.894 293.917 450.202L311.998 431.738L335.713 406.661L360.07 429.086L318.075 473.414Z" fill="#D6D8DC" stroke="#19285A"/>
<path d="M341.142 378.062L371.729 406.235L355.343 424.883L324.417 395.62L341.142 378.062Z" fill="#A1A9C6" stroke="#19285A"/>
<path d="M318.227 473.626L344.752 497.301L382.505 449.614L359.975 429.025L318.227 473.626Z" fill="#A1A9C6" stroke="#19285A"/>
<path d="M355.342 424.883L374.738 442.57L383.58 433.021L373.441 423.371L381.437 415.058L371.729 406.235L355.342 424.883Z" fill="#A1A9C6" stroke="#19285A"/>
<path d="M390.239 273.903L370.53 254.666L360.116 256.616L358.026 259.895L380.529 284.099L390.239 273.903Z" fill="#D6D8DC" stroke="#19285A"/>
<path d="M395.361 268.195L404.076 276.32L396.861 284.124C407.973 295.029 418.482 305.002 427.946 313.604L419.948 322.571L380.529 284.099L395.361 268.195Z" fill="#D6D8DC" stroke="#19285A"/>
<path d="M454.591 354.291L460.018 349.135L462.078 330.648L435.605 305.48C430.777 310.665 425.98 316.035 419.947 322.572L454.591 354.291Z" fill="#D6D8DC" stroke="#19285A"/>
<path d="M299.691 249.828L312.901 249.732C347.296 239.608 313.952 249.283 348.347 239.159L338.901 207.678L282.756 224.383L290.708 253.263L299.691 249.828Z" fill="#D6D8DC" stroke="#19285A"/>
<path d="M471.143 417.671L496.932 425.382L513.944 368.879L478.224 361.738L469.345 405.484L475.171 406.775L471.143 417.671Z" fill="#D6D8DC" stroke="#19285A"/>
<path d="M300.87 297.02C341.931 336.371 386.992 377.149 423.029 410.194L441.322 385.836L323.335 278.914L300.87 297.02Z" fill="#D6D8DC" stroke="#19285A"/>
<path d="M373.365 422.676L381.29 414.536L398.666 430.526L380.976 448.988L374.572 442.865L383.691 432.462L373.365 422.676Z" fill="#D6D8DC" stroke="#19285A"/>
<path d="M466.5 430L551.5 457" stroke="#19285A"/>
<path d="M335.645 148.137L359.304 237.071L397 229.136C389 191.636 397 229.136 376.5 138.136L335.645 148.137Z" fill="#A1A9C6" stroke="#19285A"/>
<path d="M451 466.5C480.091 480.251 512.597 489.191 538.5 501.5L522 548L428 503.5L451 466.5Z" fill="#A1A9C6" stroke="#19285A"/>
<path d="M480 349L503 353.5L512.5 355.5C571.5 366.5 556.5 363.5 571.5 366.5L578 327L485.897 310.405L480 349Z" fill="#A1A9C6" stroke="#19285A"/>
</svg>
