<svg width="1500" height="1188" viewBox="0 0 1500 1188" fill="none" xmlns="http://www.w3.org/2000/svg">
<path d="M-65 1147.01V816.662H-44.3586V796.262H45.4922V808.108H58.8484V816.662H72.2046V829.166H79.4898V812.714H128.665V829.166H142.628V367.86L148.092 365.228V347.46H261.013L267.084 353.383V365.228H277.404V354.699L281.047 348.776H355.113L357.542 353.383V395.499H386.075V781.127L390.325 786.391V826.534H418.859V246.117H444.964V206.633H472.283V201.369H519.637V206.633H548.778V246.117H576.097V421.164L571.848 425.112V495.525H580.954L591.179 444.421C591.645 442.089 592.445 439.838 593.554 437.735L604.123 417.686C610.946 404.742 630.128 406.992 633.772 421.164H674.448L682.34 411.951V246.117H702.981V240.195H711.481L715.73 246.117H768.548V153.33L818.33 146.749V134.904H891.789V146.749H920.323V441.564C939.72 424.323 965.296 415.715 991.17 417.718L1001.67 418.531V946.302H1026.57V0H1029.64C1089.82 0 1147.09 25.892 1186.84 71.0714L1234.19 599.5L1250.59 1037.12H1294.3L1317.37 1054.88V946.302L1330.12 921.295V83.5746L1352.58 69.0971L1384.15 87.523L1429.07 161.885V288.234L1485.53 381.679V623.849L1495.25 632.403V654.12L1528.03 704.133V1054.88L1558.99 1106.87L1575.99 1122.66H1602.7V1054.88H1667.06L1687.7 1083.18H1953V1199H72.2046H-65V1147.01Z" fill="#53638F" fill-opacity="0.11"/>
<path d="M191.988 387.05L219.364 358.742H228.489V348.209L232.748 342.284H306.966L309.399 346.892V389.025H337.992V775.464L342.25 780.072V820.23V1192.84H191.988V387.05Z" fill="#C0C4D3"/>
<path d="M462.32 1192.84V492.5L587.5 492.5V477.704H650.498V1192.84H462.32Z" fill="#53638F" fill-opacity="0.61"/>
<path d="M860.372 420.93L804.516 413.693C819.866 452.647 831.713 492.892 839.917 533.949L840.337 536.05C849.184 515.135 854.616 492.935 856.426 470.298L860.372 420.93Z" fill="#53638F" fill-opacity="0.61"/>
<path d="M670.945 445.927L699.481 545.918L717.941 622.131C729.096 668.184 743.51 713.387 761.075 757.396L763.837 764.318L791.765 836.679L821.515 914.303L841.551 1001.14L854.674 918.788C882.272 745.617 863.848 568.234 801.251 404.431L800.265 401.853L771.123 396.59L756.552 378.171L670.945 363.041V445.927Z" fill="#C0C4D3"/>
<path d="M709.16 588.297L700.086 545.26L696.913 558.562C653.362 741.158 662.086 932.325 722.086 1110.2L749.871 1192.57H870.692L867.576 1153.6C860.777 1068.53 843.116 984.69 815.026 904.11L783.264 812.997L760.566 756.861C738.503 702.295 721.301 645.888 709.16 588.297Z" fill="#C0C4D3"/>
<path d="M695.802 1024.6L697.052 1019.56L750.48 1192.57L670.945 1193.22C673.772 1136.35 682.096 1079.87 695.802 1024.6Z" fill="#53638F" fill-opacity="0.61"/>
</svg>
